<svg xmlns="http://www.w3.org/2000/svg" width="20" height="28" viewBox="0 0 20 28"><title>Artboard 3</title><path d="M10 6H3.13L6.5 27.3h8.22L18.09 6z" fill="#ff9100" fill-rule="evenodd"/><path d="M10 6H3.13L6.5 27.3H13L16.38 6z" fill="#fd0" fill-rule="evenodd"/><path d="M1.14 5.93h17.72V4H1.14z" fill="#fff" fill-rule="evenodd"/><path d="M1.14 5.93h17.72V4H1.14z" fill="none" stroke="#000" stroke-width=".92"/><path d="M15.43.77h-11l-1.29 3h13.57z" fill="#fff" fill-rule="evenodd"/><path d="M15.43.77h-11l-1.29 3h13.57z" fill="none" stroke="#050505" stroke-width=".92"/><path d="M10 6H1.91l3.37 21.3h9.44L18.09 6z" fill="none" stroke="#000" stroke-width=".92"/><path d="M18.31 11.94H1.57l1.51 8.48 6.86-.08 6.86.08z" fill="#fff" fill-rule="evenodd"/><path d="M18.31 11.94H1.57l1.51 8.48 6.86-.08 6.86.08z" fill="none" stroke="#000" stroke-width=".92"/></svg>