<?xml version="1.0" encoding="utf-8"?>
<!-- Generator: Adobe Illustrator 18.1.1, SVG Export Plug-In . SVG Version: 6.00 Build 0)  -->
<svg version="1.1" id="Layer_1" xmlns="http://www.w3.org/2000/svg" xmlns:xlink="http://www.w3.org/1999/xlink" x="0px" y="0px"
	 viewBox="0 0 12.3 12.3" enable-background="new 0 0 12.3 12.3" xml:space="preserve">
<path fill="#AB2829" d="M12,9.4L8.7,6.1L12,2.9c0.4-0.4,0.4-0.9,0-1.3l-1.3-1.3c-0.4-0.4-0.9-0.4-1.3,0L6.1,3.5L2.9,0.3
	c-0.4-0.4-0.9-0.4-1.3,0L0.3,1.6c-0.4,0.4-0.4,0.9,0,1.3l3.3,3.3L0.3,9.4c-0.4,0.4-0.4,0.9,0,1.3L1.6,12c0.4,0.4,0.9,0.4,1.3,0
	l3.3-3.3L9.4,12c0.4,0.4,0.9,0.4,1.3,0l1.3-1.3C12.3,10.3,12.3,9.7,12,9.4z"/>
</svg>
