<?xml version="1.0" encoding="utf-8"?>
<!-- Generator: Adobe Illustrator 18.1.1, SVG Export Plug-In . SVG Version: 6.00 Build 0)  -->
<svg version="1.1" id="Layer_1" xmlns="http://www.w3.org/2000/svg" xmlns:xlink="http://www.w3.org/1999/xlink" x="0px" y="0px"
	 viewBox="0 0 19.8 19.8" enable-background="new 0 0 19.8 19.8" xml:space="preserve">
<path fill="#787878" d="M19.4,18.6l-0.9,0.9c-0.2,0.2-0.5,0.4-0.9,0.4c-0.3,0-0.6-0.1-0.9-0.4l-5.6-5.6c-1.1,0.7-2.4,1-3.8,1
	C3.3,14.8,0,11.5,0,7.4S3.3,0,7.4,0s7.4,3.3,7.4,7.4c0,1.4-0.4,2.7-1,3.8l5.6,5.6C19.9,17.3,19.9,18.1,19.4,18.6z M7.4,12.4
	c2.7,0,4.9-2.2,4.9-4.9s-2.2-4.9-4.9-4.9c-2.7,0-4.9,2.2-4.9,4.9S4.7,12.4,7.4,12.4z"/>
</svg>
