<?xml version="1.0" encoding="utf-8"?>
<!-- Generator: Adobe Illustrator 18.1.1, SVG Export Plug-In . SVG Version: 6.00 Build 0)  -->
<svg version="1.1" id="Layer_1" xmlns="http://www.w3.org/2000/svg" xmlns:xlink="http://www.w3.org/1999/xlink" x="0px" y="0px"
	 viewBox="0 0 106.5 106.5" enable-background="new 0 0 106.5 106.5" xml:space="preserve">
<path fill="#B5B5B6" d="M104.2,81.5L75.9,53.3L104.2,25c3.1-3.1,3.1-8.2,0-11.3L92.9,2.3c-3.1-3.1-8.2-3.1-11.3,0L53.3,30.6L25,2.3
	c-3.1-3.1-8.2-3.1-11.3,0L2.3,13.7c-3.1,3.1-3.1,8.2,0,11.3l28.3,28.3L2.3,81.5c-3.1,3.1-3.1,8.2,0,11.3l11.3,11.3
	c3.1,3.1,8.2,3.1,11.3,0l28.3-28.3l28.3,28.3c3.1,3.1,8.2,3.1,11.3,0l11.3-11.3C107.3,89.7,107.3,84.7,104.2,81.5z"/>
</svg>
