<?xml version="1.0" encoding="utf-8"?>
<!-- Generator: Adobe Illustrator 18.1.1, SVG Export Plug-In . SVG Version: 6.00 Build 0)  -->
<svg version="1.1" id="Layer_1" xmlns="http://www.w3.org/2000/svg" xmlns:xlink="http://www.w3.org/1999/xlink" x="0px" y="0px"
	 viewBox="0 0 128 112" enable-background="new 0 0 128 112" xml:space="preserve">
<g>
	<path fill="#FFFFFF" d="M33.6,48.8c0.3-0.4,0.5-0.8,0.8-1.3c2.5-4,5.3-8.4,8.5-12.7C33.9,24.3,21.4,16,0,16v16
		C17.4,32,26.2,38.8,33.6,48.8z"/>
	<path fill="#FFFFFF" d="M96,32v12c0,1.6,0.9,3,2.3,3.6c0.5,0.3,1.1,0.4,1.7,0.4c0.9,0,1.8-0.3,2.6-0.9l24-20
		c0.9-0.8,1.4-1.9,1.4-3.1s-0.5-2.3-1.4-3.1l-24-20C101.8,0.3,100.9,0,100,0c-0.6,0-1.2,0.1-1.7,0.4C96.9,1,96,2.4,96,4v12
		c-32.4,0-44.3,19-54.8,35.8C31.4,67.5,23.6,80,0,80v16c32.4,0,44.3-19,54.8-35.8C64.6,44.5,72.4,32,96,32z"/>
	<path fill="#FFFFFF" d="M102.6,64.9c-0.7-0.6-1.6-0.9-2.6-0.9c-0.6,0-1.2,0.1-1.7,0.4C96.9,65,96,66.4,96,68v12
		c-17.4,0-26.2-6.8-33.6-16.8c-0.3,0.4-0.5,0.8-0.8,1.3c-2.5,4-5.3,8.4-8.5,12.7C62.1,87.7,74.6,96,96,96v12c0,1.6,0.9,3,2.3,3.6
		c0.5,0.3,1.1,0.4,1.7,0.4c0.9,0,1.8-0.3,2.6-0.9l24-20c0.9-0.8,1.4-1.9,1.4-3.1s-0.5-2.3-1.4-3.1L102.6,64.9z"/>
</g>
</svg>
