<?xml version="1.0" encoding="utf-8"?>
<!-- Generator: Adobe Illustrator 18.1.1, SVG Export Plug-In . SVG Version: 6.00 Build 0)  -->
<svg version="1.1" id="Layer_1" xmlns="http://www.w3.org/2000/svg" xmlns:xlink="http://www.w3.org/1999/xlink" x="0px" y="0px"
	 viewBox="0 0 20 40" enable-background="new 0 0 20 40" xml:space="preserve">
<path fill="#B5B6B6" d="M19.6,15.3L14.3,10l5.3-5.3c0.6-0.6,0.6-1.5,0-2.1l-2.1-2.1c-0.6-0.6-1.5-0.6-2.1,0L10,5.7L4.7,0.4
	c-0.6-0.6-1.5-0.6-2.1,0L0.4,2.6c-0.6,0.6-0.6,1.5,0,2.1L5.7,10l-5.3,5.3c-0.6,0.6-0.6,1.5,0,2.1l2.1,2.1c0.6,0.6,1.5,0.6,2.1,0
	l5.3-5.3l5.3,5.3c0.6,0.6,1.5,0.6,2.1,0l2.1-2.1C20.1,16.8,20.1,15.9,19.6,15.3z"/>
<path fill="#AC2829" d="M19.5,35.3l-5.4-5.4l5.4-5.2c0.7-0.7,0.7-1.5,0-2.1l-2.1-2.1c-0.7-0.7-1.5-0.7-2.1,0l-5.4,5.2l-5.2-5.2
	c-0.7-0.7-1.5-0.7-2.1,0l-2.1,2.1c-0.7,0.7-0.7,1.5,0,2.1l5.4,5.4l-5.4,5.2c-0.7,0.7-0.7,1.5,0,2.1l2.1,2.1c0.7,0.7,1.5,0.7,2.1,0
	l5.4-5.4l5.2,5.4c0.7,0.7,1.5,0.7,2.1,0l2.1-2.1C20,36.7,20,35.8,19.5,35.3z"/>
</svg>
