<?xml version="1.0" encoding="utf-8"?>
<!-- Generator: Adobe Illustrator 18.1.1, SVG Export Plug-In . SVG Version: 6.00 Build 0)  -->
<svg version="1.1" id="Layer_1" xmlns="http://www.w3.org/2000/svg" xmlns:xlink="http://www.w3.org/1999/xlink" x="0px" y="0px"
	 viewBox="0 0 89.5 89.5" enable-background="new 0 0 89.5 89.5" xml:space="preserve">
<path fill="#FFFFFF" d="M2.3,16.5l28.3,28.3L2.3,73.1c-3.1,3.1-3.1,8.2,0,11.3l2.8,2.8c3.1,3.1,8.2,3.1,11.3,0l28.3-28.3l28.3,28.3
	c3.1,3.1,8.2,3.1,11.3,0l2.8-2.8c3.1-3.1,3.1-8.2,0-11.3L58.9,44.8l28.3-28.3c3.1-3.1,3.1-8.2,0-11.3l-2.8-2.8
	c-3.1-3.1-8.2-3.1-11.3,0L44.8,30.6L16.5,2.3c-3.1-3.1-8.2-3.1-11.3,0L2.3,5.2C-0.8,8.3-0.8,13.4,2.3,16.5z"/>
</svg>
