<?xml version="1.0" encoding="utf-8"?>
<!-- Generator: Adobe Illustrator 18.1.1, SVG Export Plug-In . SVG Version: 6.00 Build 0)  -->
<svg version="1.1" id="Layer_1" xmlns="http://www.w3.org/2000/svg" xmlns:xlink="http://www.w3.org/1999/xlink" x="0px" y="0px"
	 viewBox="0 0 55.5 45.1" enable-background="new 0 0 55.5 45.1" xml:space="preserve">
<path fill="#FFFFFF" d="M55.5,5.3c-2,0.9-4.2,1.5-6.5,1.8c2.4-1.4,4.2-3.6,5-6.3c-2.2,1.3-4.6,2.3-7.2,2.8c-2.1-2.2-5-3.6-8.3-3.6
	C32.1,0,27,5.1,27,11.4c0,0.9,0.1,1.8,0.3,2.6C17.9,13.5,9.5,9,3.9,2.1c-1,1.7-1.5,3.6-1.5,5.7c0,3.9,2,7.4,5.1,9.5
	c-1.9-0.1-3.6-0.6-5.2-1.4c0,0,0,0.1,0,0.1c0,5.5,3.9,10.1,9.1,11.2c-1,0.3-2,0.4-3,0.4c-0.7,0-1.4-0.1-2.1-0.2
	c1.4,4.5,5.7,7.8,10.6,7.9C13,38.3,8,40.1,2.7,40.1c-0.9,0-1.8-0.1-2.7-0.2c5,3.2,11,5.1,17.4,5.1c20.9,0,32.4-17.3,32.4-32.4
	c0-0.5,0-1,0-1.5C52,9.6,54,7.6,55.5,5.3z"/>
</svg>
