<?xml version="1.0" encoding="utf-8"?>
<!-- Generator: Adobe Illustrator 18.1.1, SVG Export Plug-In . SVG Version: 6.00 Build 0)  -->
<svg version="1.1" id="Layer_1" xmlns="http://www.w3.org/2000/svg" xmlns:xlink="http://www.w3.org/1999/xlink" x="0px" y="0px"
	 viewBox="584.3 961.4 31.1 25" enable-background="new 584.3 961.4 31.1 25" xml:space="preserve">
<path fill="#40BAE2" d="M979,917.9c-3.6,1.6-7.6,2.7-11.7,3.2c4.3-2.5,7.6-6.5,9-11.4c-4,2.3-8.3,4.1-13,5c-3.8-4-9-6.5-15-6.5
	c-11.5,0-20.7,9.2-20.7,20.5c0,1.6,0.2,3.2,0.5,4.7c-16.9-0.9-32.1-9-42.2-21.4c-1.8,3.1-2.7,6.5-2.7,10.3c0,7,3.6,13.3,9.2,17.1
	c-3.4-0.2-6.5-1.1-9.4-2.5v0.2c0,9.9,7,18.2,16.4,20.2c-1.8,0.5-3.6,0.7-5.4,0.7c-1.3,0-2.5-0.2-3.8-0.4
	c2.5,8.1,10.3,14.1,19.1,14.2c-7,5.4-16,8.6-25.6,8.6c-1.6,0-3.2-0.2-4.9-0.4c9,5.8,19.8,9.2,31.4,9.2c37.7,0,58.4-31.2,58.4-58.4
	c0-0.9,0-1.8,0-2.7C972.7,925.7,976.3,922.1,979,917.9z"/>
<path fill="#FFFFFF" d="M615.4,964.4c-1.1,0.5-2.3,0.8-3.6,1c1.3-0.8,2.3-2,2.8-3.5c-1.2,0.7-2.6,1.3-4,1.6c-1.2-1.2-2.8-2-4.6-2
	c-3.6,0-6.4,2.8-6.4,6.3c0,0.5,0.1,1,0.2,1.4c-5.2-0.3-9.9-2.8-13-6.6c-0.6,0.9-0.8,2-0.8,3.2c0,2.2,1.1,4.1,2.8,5.3
	c-1.1-0.1-2-0.3-2.9-0.8v0.1c0,3.1,2.2,5.6,5.1,6.2c-0.6,0.2-1.1,0.2-1.7,0.2c-0.4,0-0.8-0.1-1.2-0.1c0.8,2.5,3.2,4.3,5.9,4.4
	c-2.2,1.7-4.9,2.7-7.9,2.7c-0.5,0-1-0.1-1.5-0.1c2.8,1.8,6.1,2.8,9.7,2.8c11.6,0,18-9.6,18-18c0-0.3,0-0.6,0-0.8
	C613.5,966.8,614.6,965.6,615.4,964.4z"/>
</svg>
