<?xml version="1.0" encoding="utf-8"?>
<!-- Generator: Adobe Illustrator 18.1.1, SVG Export Plug-In . SVG Version: 6.00 Build 0)  -->
<svg version="1.1" id="Layer_1" xmlns="http://www.w3.org/2000/svg" xmlns:xlink="http://www.w3.org/1999/xlink" x="0px" y="0px"
	 viewBox="0 0 45 45" enable-background="new 0 0 45 45" xml:space="preserve">
<path id="White_2_" fill="#FFFFFF" d="M42.5,0h-40C1.1,0,0,1.1,0,2.5v40C0,43.9,1.1,45,2.5,45H24V27.6h-5.9v-6.8H24v-5
	c0-5.8,3.5-9,8.7-9c2.5,0,4.6,0.2,5.2,0.3v6.1l-3.6,0c-2.8,0-3.4,1.3-3.4,3.3v4.3h6.7l-0.9,6.8H31V45h11.5c1.4,0,2.5-1.1,2.5-2.5
	v-40C45,1.1,43.9,0,42.5,0z"/>
</svg>
