<?xml version="1.0" encoding="utf-8"?>
<!-- Generator: Adobe Illustrator 18.1.1, SVG Export Plug-In . SVG Version: 6.00 Build 0)  -->
<svg version="1.1" id="Layer_1" xmlns="http://www.w3.org/2000/svg" xmlns:xlink="http://www.w3.org/1999/xlink" x="0px" y="0px"
	 viewBox="550 950 100 100" enable-background="new 550 950 100 100" xml:space="preserve">
<path id="White_2_" fill="#FFFFFF" d="M644.4,950h-88.9c-3.1,0-5.6,2.4-5.6,5.6v88.9c0,3.1,2.4,5.6,5.6,5.6h47.8v-38.7h-13.1v-15.1
	h13.1v-11.1c0-12.9,7.8-20,19.3-20c5.6,0,10.2,0.4,11.6,0.7v13.6h-8c-6.2,0-7.6,2.9-7.6,7.3v9.6h14.9l-2,15.1h-12.7v38.7h25.6
	c3.1,0,5.6-2.4,5.6-5.6v-88.9C650,952.4,647.6,950,644.4,950z"/>
</svg>
