<?xml version="1.0" encoding="utf-8"?>
<!-- Generator: Adobe Illustrator 17.1.0, SVG Export Plug-In . SVG Version: 6.00 Build 0)  -->
<!DOCTYPE svg PUBLIC "-//W3C//DTD SVG 1.1//EN" "http://www.w3.org/Graphics/SVG/1.1/DTD/svg11.dtd">
<svg version="1.1" xmlns="http://www.w3.org/2000/svg" xmlns:xlink="http://www.w3.org/1999/xlink" x="0px" y="0px"
	 viewBox="0 0 555.1 113.8" enable-background="new 0 0 555.1 113.8" xml:space="preserve">
<g id="ORD" display="none">
</g>
<g id="ORD_1_">
</g>
<g id="ORD_2_">
</g>
<g id="SFO_1_" display="none">
</g>
<g id="SFO">
</g>
<g id="SFO_2_">
</g>
<g id="SFO_3_">
</g>
<g id="SFO_4_">
</g>
<g id="MSY_6_" display="none">
</g>
<g id="MSY">
</g>
<g id="MSY_1_">
</g>
<g id="MSY_2_">
</g>
<g id="MSY_3_">
</g>
<g id="MSY_4_">
</g>
<g id="MSY_5_">
</g>
<g id="PHX_2_" display="none">
</g>
<g id="PHX">
</g>
<g id="PHX_1_">
</g>
<g id="JFK_1_" display="none">
	<rect x="-50.2" y="-116.6" display="inline" fill="#454545" width="643.5" height="342.8"/>
</g>
<g id="JFK">
	<polygon opacity="0.9" fill="#BEE5ED" points="531.8,7.9 484.3,113.8 74.5,113.8 27.9,10.3 73.9,26.7 291.3,54.8 510.7,14.4 	"/>
	<line fill="none" stroke="#787878" stroke-miterlimit="10" x1="191.4" y1="96.4" x2="368.4" y2="96.4"/>
	<line fill="none" stroke="#787878" stroke-miterlimit="10" x1="255.8" y1="68.9" x2="255.8" y2="113.8"/>
	<line fill="none" stroke="#787878" stroke-miterlimit="10" x1="268.6" y1="68.9" x2="268.6" y2="113.8"/>
	<line fill="none" stroke="#787878" stroke-miterlimit="10" x1="281.5" y1="68.9" x2="281.5" y2="113.8"/>
	<line fill="none" stroke="#787878" stroke-miterlimit="10" x1="294.3" y1="68.9" x2="294.3" y2="113.8"/>
	<line fill="none" stroke="#787878" stroke-miterlimit="10" x1="307.2" y1="68.9" x2="307.2" y2="113.8"/>
	<line fill="none" stroke="#787878" stroke-miterlimit="10" x1="320" y1="68.9" x2="320" y2="113.8"/>
	<line fill="none" stroke="#787878" stroke-miterlimit="10" x1="191.5" y1="64.9" x2="191.5" y2="113.8"/>
	<line fill="none" stroke="#787878" stroke-miterlimit="10" x1="204.4" y1="68.9" x2="204.4" y2="113.8"/>
	<line fill="none" stroke="#787878" stroke-miterlimit="10" x1="217.2" y1="68.9" x2="217.2" y2="113.8"/>
	<line fill="none" stroke="#787878" stroke-miterlimit="10" x1="230.1" y1="68.9" x2="230.1" y2="113.8"/>
	<line fill="none" stroke="#787878" stroke-miterlimit="10" x1="242.9" y1="68.9" x2="242.9" y2="113.8"/>
	<line fill="none" stroke="#787878" stroke-miterlimit="10" x1="332.8" y1="68.9" x2="332.8" y2="113.8"/>
	<line fill="none" stroke="#787878" stroke-miterlimit="10" x1="345.7" y1="68.9" x2="345.7" y2="113.8"/>
	<line fill="none" stroke="#787878" stroke-miterlimit="10" x1="358.5" y1="68.9" x2="358.5" y2="113.8"/>
	<path fill="#626464" d="M490,108.1"/>
	<line fill="none" stroke="#787878" stroke-miterlimit="10" x1="531.3" y1="8.5" x2="497.4" y2="84.3"/>
	<line fill="none" stroke="#787878" stroke-miterlimit="10" x1="528.2" y1="7.9" x2="493" y2="84.3"/>
	<line fill="none" stroke="#787878" stroke-miterlimit="10" x1="520.7" y1="8.5" x2="487.9" y2="83.6"/>
	<line fill="none" stroke="#787878" stroke-miterlimit="10" x1="512.8" y1="11.3" x2="480.9" y2="83.6"/>
	<line fill="none" stroke="#787878" stroke-miterlimit="10" x1="503.3" y1="14" x2="474.6" y2="84.3"/>
	<line fill="none" stroke="#787878" stroke-miterlimit="10" x1="493" y1="17.4" x2="467.4" y2="84"/>
	<line fill="none" stroke="#787878" stroke-miterlimit="10" x1="479.9" y1="23.7" x2="457" y2="84.6"/>
	<line fill="none" stroke="#787878" stroke-miterlimit="10" x1="466.1" y1="28.9" x2="446.4" y2="84.6"/>
	<line fill="none" stroke="#787878" stroke-miterlimit="10" x1="449.4" y1="36.4" x2="435" y2="84"/>
	<line fill="none" stroke="#787878" stroke-miterlimit="10" x1="434.5" y1="43.1" x2="423.9" y2="83.6"/>
	<line fill="none" stroke="#787878" stroke-miterlimit="10" x1="417.4" y1="50.7" x2="410.8" y2="87"/>
	<line fill="none" stroke="#787878" stroke-miterlimit="10" x1="398.6" y1="63.9" x2="397.4" y2="85.9"/>
	<path fill="none" stroke="#787878" stroke-miterlimit="10" d="M462.1,40.2c0,0,40.3-2,53.1,3.6"/>
	<path fill="none" stroke="#787878" stroke-miterlimit="10" d="M500.4,20.9c0,0,15.3,0.9,22.9,4.7"/>
	<path fill="none" stroke="#787878" stroke-miterlimit="10" d="M415.3,62c0,0,83.5-6.8,91.6,0.7"/>
	<line fill="none" stroke="#787878" stroke-miterlimit="10" x1="27.5" y1="9.5" x2="61.3" y2="85.3"/>
	<line fill="none" stroke="#787878" stroke-miterlimit="10" x1="30.6" y1="8.9" x2="65.7" y2="85.3"/>
	<line fill="none" stroke="#787878" stroke-miterlimit="10" x1="38" y1="9.5" x2="70.8" y2="84.6"/>
	<line fill="none" stroke="#787878" stroke-miterlimit="10" x1="45.9" y1="12.3" x2="77.8" y2="84.6"/>
	<line fill="none" stroke="#787878" stroke-miterlimit="10" x1="55.5" y1="15" x2="84.1" y2="85.3"/>
	<line fill="none" stroke="#787878" stroke-miterlimit="10" x1="65.7" y1="18.4" x2="91.4" y2="85"/>
	<line fill="none" stroke="#787878" stroke-miterlimit="10" x1="78.8" y1="24.7" x2="101.7" y2="85.6"/>
	<line fill="none" stroke="#787878" stroke-miterlimit="10" x1="92.6" y1="29.9" x2="112.3" y2="85.6"/>
	<line fill="none" stroke="#787878" stroke-miterlimit="10" x1="109.3" y1="37.4" x2="123.7" y2="85"/>
	<line fill="none" stroke="#787878" stroke-miterlimit="10" x1="124.2" y1="44.1" x2="134.8" y2="84.6"/>
	<line fill="none" stroke="#787878" stroke-miterlimit="10" x1="141.4" y1="51.7" x2="148" y2="88"/>
	<line fill="none" stroke="#787878" stroke-miterlimit="10" x1="160.2" y1="64.9" x2="161.3" y2="86.9"/>
	<path fill="none" stroke="#787878" stroke-miterlimit="10" d="M96.6,41.2c0,0-40.3-2-53.1,3.6"/>
	<path fill="none" stroke="#787878" stroke-miterlimit="10" d="M58.3,21.9c0,0-15.3,0.9-22.9,4.7"/>
	<path fill="none" stroke="#787878" stroke-miterlimit="10" d="M143.4,63c0,0-83.5-6.8-91.6,0.7"/>
	<rect x="2.3" y="85.4" fill="#F4F4F4" width="177.6" height="28.5"/>
	<rect x="0" y="83.4" fill="#9B9A9A" width="177.6" height="7.8"/>
	<path opacity="0.5" fill="#3F403F" d="M177.6,85.4v-2H157c5,5.3,8.3,12.5,3.7,18.9c-3,4.1-6.6,8.2-10.8,11.6h29.9V85.4H177.6z"/>
	<rect x="375.2" y="85.4" fill="#F4F4F4" width="177.6" height="28.5"/>
	<rect x="377.5" y="83.4" fill="#9B9A9A" width="177.6" height="7.8"/>
	<path opacity="0.5" fill="#3F403F" d="M377.5,85.4v-2h20.5c-5,5.3-8.3,12.5-3.7,18.9c3,4.1,6.6,8.2,10.8,11.6h-29.9V85.4H377.5z"/>
	<path fill="#EAEAEA" d="M244.6,70.5l-47.9-19.9L131.8,46c0,0,50.5,45.9,40.1,54c-10.4,8-24.5,13.9-24.5,13.9H204
		C204,113.8,184.1,97,244.6,70.5z M194.4,85.2c-3.3,2.5-3.7-2.7-7.2-9.2c-3.4-6.5,2.9-9.5,2.9-9.5C208.3,67.6,197.7,82.7,194.4,85.2
		z"/>
	<path fill="#BCBCBC" d="M191.8,85.3c-1.3-1.3-2.3-5-4.6-9.3c-3.4-6.5,2.9-9.5,2.9-9.5c2.8,0.2,4.8,0.7,6.4,1.4
		c-0.1-0.7-0.4-1.3-1-1.8c-1.1-0.9-2.5-1.9-3.9-2.4c-0.3,0.1-0.6,0.1-0.9,0.1c-3.1,0.1-6.6,0.3-8.1,3.6c-1,2.4-3.4,5.3-2.3,7.9
		C182.3,80.1,186.9,83.9,191.8,85.3C191.7,85.3,191.8,85.3,191.8,85.3z"/>
	<path fill="#AEADAE" d="M240.3,72.4c-5.4,1-28.8,15.3-33.5,18.9c-8.1,6.3-14,11.8-13.2,22.5H204C204,113.8,185.1,97.9,240.3,72.4z"
		/>
	<path fill="#EAEAEA" d="M352.6,113.8h56.6c0,0-14-5.9-24.5-13.9c-10.4-8,40.1-54,40.1-54L360,50.6l-47.9,19.9
		C372.5,97,352.6,113.8,352.6,113.8z M366.6,66.5c0,0,6.3,3,2.9,9.5c-3.4,6.5-3.9,11.7-7.2,9.2C359,82.7,348.4,67.6,366.6,66.5z"/>
	<path fill="#BCBCBC" d="M364.9,85.3c1.3-1.3,2.3-5,4.6-9.3c3.4-6.5-2.9-9.5-2.9-9.5c-2.8,0.2-4.8,0.7-6.4,1.4
		c0.1-0.7,0.4-1.3,1-1.8c1.1-0.9,2.5-1.9,3.9-2.4c0.3,0.1,0.6,0.1,0.9,0.1c3.1,0.1,6.6,0.3,8.1,3.6c1,2.4,3.4,5.3,2.3,7.9
		C374.4,80.1,369.8,83.9,364.9,85.3C364.9,85.3,364.9,85.3,364.9,85.3z"/>
	<path fill="#AEADAE" d="M316.4,72.4c5.4,1,28.8,15.3,33.5,18.9c8.1,6.3,14,11.8,13.2,22.5h-10.5C352.6,113.8,371.6,97.9,316.4,72.4
		z"/>
	<path fill="#9B9A9A" d="M370.5,61.8v5.9l166.8-61c0,0-1.3-1.2-2-1.2c-5.1,0-16.8,1.6-29.4,6.3C494.1,16.2,370.5,61.8,370.5,61.8z"
		/>
	<path fill="#F4F4F4" d="M299.5,22.7c0,0,118-42.9,206.4-10.9L370.5,61.8L299.5,22.7z"/>
	<path fill="#9B9A9A" d="M184.8,61.8v5.9L18,6.7c0,0,1.3-1.2,2-1.2c5.1,0,16.8,1.6,29.4,6.3C61.2,16.2,184.8,61.8,184.8,61.8z"/>
	<path fill="#F4F4F4" d="M255.8,22.7c0,0-118-42.9-206.4-10.9l135.4,49.9L255.8,22.7z"/>
	<path fill="#9B9A9A" d="M188.2,62l0,5.4c0,0,27.1-1.2,88.9,19.3l0-8.9C223.7,58.9,188.2,62,188.2,62z"/>
	<path fill="#9B9A9A" d="M365.9,62l0,5.4c0,0-27.1-1.2-88.9,19.3l0-8.9C330.4,58.9,365.9,62,365.9,62z"/>
	<path fill="#F4F4F4" d="M365.9,61.8c-50.4,2.1-79.7,18.8-88.9,18.8c-5.6,0-39.8-16.7-88.9-18.8c30.2-32.5,77.7-41.3,88.9-41.3
		C288.3,20.5,346.2,29.8,365.9,61.8z"/>
	<path fill="#D6D6D6" d="M271.6,21.1c-28.2-3-70.1,19.2-83.4,40.7c10.8,0.5,14.1,0.6,23.3,2.1C234.3,20.9,267.5,23.5,271.6,21.1z"/>
	<path fill="#D6D6D6" d="M282.5,21.1c28.2-3,70.1,19.2,83.4,40.7c-10.8,0.5-14.1,0.6-23.3,2.1C321.5,20.9,286.6,23.5,282.5,21.1z"/>
	<path fill="#F4F4F4" d="M279.4,80.2c0.7-0.5-2.1-1.6-2.3-2.5v0l0,0h0v0c-0.2,0.9-3,2-2.3,2.5c5,3.2-5.7,7.9-2.5,8.1
		c3.5,0.2,2.7,0.7,4.8,0.7c2.1,0,1-0.4,4.8-0.7C285.1,88.1,274.3,83.4,279.4,80.2z"/>
	<path fill="#626464" d="M284,21c0,0,31.7-6.2,76.4,36.8h6.1C366.5,57.8,324.2,16.9,284,21z"/>
	<path fill="#626464" d="M271.1,21c0,0-31.7-6.2-76.4,36.8h-6.1C188.7,57.8,230.9,16.9,271.1,21z"/>
</g>
</svg>
