<?xml version="1.0" encoding="utf-8"?>
<!-- Generator: Adobe Illustrator 17.1.0, SVG Export Plug-In . SVG Version: 6.00 Build 0)  -->
<!DOCTYPE svg PUBLIC "-//W3C//DTD SVG 1.1//EN" "http://www.w3.org/Graphics/SVG/1.1/DTD/svg11.dtd">
<svg version="1.1" xmlns="http://www.w3.org/2000/svg" xmlns:xlink="http://www.w3.org/1999/xlink" x="0px" y="0px"
	 viewBox="0 0 540 136.4" enable-background="new 0 0 540 136.4" xml:space="preserve">
<g id="ORD" display="none">
</g>
<g id="ORD_1_">
</g>
<g id="ORD_2_">
</g>
<g id="SFO_1_" display="none">
</g>
<g id="SFO">
</g>
<g id="SFO_2_">
</g>
<g id="SFO_3_">
</g>
<g id="SFO_4_">
</g>
<g id="MSY_6_" display="none">
</g>
<g id="MSY">
</g>
<g id="MSY_1_">
</g>
<g id="MSY_2_">
</g>
<g id="MSY_3_">
</g>
<g id="MSY_4_">
</g>
<g id="MSY_5_">
</g>
<g id="PHX_2_" display="none">
	<rect x="-19.3" y="-22.6" display="inline" fill="#BBD9E8" width="587" height="178"/>
</g>
<g id="PHX">
	<rect x="3.9" y="14.4" width="532.2" height="122"/>
	<rect x="0" y="8.4" fill="#A89078" width="540" height="12"/>
	<rect x="0" y="26.4" fill="#A89078" width="540" height="12"/>
	<rect x="0" y="44.4" fill="#A89078" width="540" height="12"/>
	<rect x="0" y="62.4" fill="#A89078" width="540" height="12"/>
	<rect x="0" y="80.4" fill="#A89078" width="540" height="12"/>
	<rect x="0" y="98.4" fill="#A89078" width="540" height="12"/>
	<rect x="112.2" y="8.4" width="3.5" height="102"/>
	<rect x="422.6" y="8.4" width="3.5" height="102"/>
	<line fill="none" stroke="#A89078" stroke-width="3" stroke-miterlimit="10" x1="223" y1="131" x2="183.5" y2="111.6"/>
	<rect x="156.4" y="109.3" fill="#A89078" width="29.6" height="4.7"/>
	<line fill="none" stroke="#A89078" stroke-width="3" stroke-miterlimit="10" x1="120.1" y1="131" x2="159.6" y2="111.6"/>
	<rect x="2" y="109.1" fill="#A89078" width="6.4" height="27.4"/>
	<rect x="104.7" y="109.1" fill="#A89078" width="6.4" height="27.4"/>
	<rect x="116.7" y="109.1" fill="#A89078" width="6.4" height="27.4"/>
	<rect x="415.2" y="109.1" fill="#A89078" width="6.4" height="27.4"/>
	<rect x="427.2" y="109.1" fill="#A89078" width="6.4" height="27.4"/>
	<rect x="531.9" y="109.1" fill="#A89078" width="6.4" height="27.4"/>
	<rect x="41.5" y="109.3" fill="#A89078" width="29.6" height="4.7"/>
	<line fill="none" stroke="#A89078" stroke-width="3" stroke-miterlimit="10" x1="5.2" y1="131" x2="44.7" y2="111.6"/>
	<line fill="none" stroke="#A89078" stroke-width="3" stroke-miterlimit="10" x1="108.2" y1="131" x2="68.7" y2="111.6"/>
	<rect x="467.6" y="109.4" fill="#A89078" width="29.6" height="4.7"/>
	<line fill="none" stroke="#A89078" stroke-width="3" stroke-miterlimit="10" x1="431.4" y1="131.1" x2="470.9" y2="111.7"/>
	<line fill="none" stroke="#A89078" stroke-width="3" stroke-miterlimit="10" x1="534.3" y1="131.1" x2="494.8" y2="111.7"/>
	<rect x="351" y="109.5" fill="#A89078" width="29.6" height="4.7"/>
	<line fill="none" stroke="#A89078" stroke-width="3" stroke-miterlimit="10" x1="314.8" y1="131.2" x2="354.3" y2="111.8"/>
	<line fill="none" stroke="#A89078" stroke-width="3" stroke-miterlimit="10" x1="417.7" y1="131.2" x2="378.2" y2="111.8"/>
</g>
<g id="PHX_1_">
	<polygon opacity="0.6" points="193.4,8.4 112.2,136.4 193.4,136.4 	"/>
	<rect x="193.4" y="0" fill="#F5C99D" width="59.8" height="136.4"/>
	<rect x="193.4" y="120.5" opacity="0.5" width="59.8" height="15.9"/>
	<rect x="193.4" y="0" opacity="0.2" width="29.4" height="136.4"/>
	<rect x="193.4" y="0" opacity="0.2" width="14.7" height="136.4"/>
	<polygon points="165.9,128.9 279.7,115 279.7,16.2 165.9,28.4 	"/>
	<path fill="#B99C86" d="M165.2,36.6c0,0,27.8-8.5,57.7-8.5s57.8-4.1,57.8-4.1v-12c0,0-25.7,4.1-57.7,4.1s-57.7,8.5-57.7,8.5V36.6z"
		/>
	<path fill="#B99C86" d="M165.2,53.1c0,0,27.8-8.5,57.7-8.5s57.8-4.1,57.8-4.1v-12c0,0-25.7,4.1-57.7,4.1s-57.7,8.5-57.7,8.5V53.1z"
		/>
	<path fill="#B99C86" d="M165.2,69.7c0,0,27.8-8.5,57.7-8.5s57.8-4.1,57.8-4.1V45c0,0-25.7,4.1-57.7,4.1s-57.7,8.5-57.7,8.5V69.7z"
		/>
	<path fill="#B99C86" d="M165.2,86.1c0,0,27.8-8.5,57.7-8.5s57.8-4.1,57.8-4.1v-12c0,0-25.7,4.1-57.7,4.1s-57.7,8.5-57.7,8.5V86.1z"
		/>
	<path fill="#B99C86" d="M165.2,102.6c0,0,27.8-8.5,57.7-8.5s57.8-4.1,57.8-4.1v-12c0,0-25.7,4.1-57.7,4.1s-57.7,8.5-57.7,8.5V102.6
		z"/>
	<path fill="#B99C86" d="M165.2,119.2c0,0,27.8-8.5,57.7-8.5s57.8-4.1,57.8-4.1v-12c0,0-25.7,4.1-57.7,4.1s-57.7,8.5-57.7,8.5V119.2
		z"/>
	<path fill="#B99C86" d="M165.2,135.1c0,0,27.8-8.5,57.7-8.5s57.8-4.1,57.8-4.1v-12c0,0-25.7,4.1-57.7,4.1s-57.7,8.5-57.7,8.5V135.1
		z"/>
	<path opacity="0.2" d="M233.6,15.9c-3.4,0.1-7,0.2-10.6,0.2c-32,0-57.7,8.5-57.7,8.5v12c0,0,0.2-0.1,0.7-0.2v4.5
		c-0.4,0.1-0.7,0.2-0.7,0.2v12c0,0,0.2-0.1,0.7-0.2v4.6c-0.4,0.1-0.7,0.2-0.7,0.2v12c0,0,0.2-0.1,0.7-0.2v4.5
		c-0.4,0.1-0.7,0.2-0.7,0.2v12c0,0,0.2-0.1,0.7-0.2v4.5c-0.4,0.1-0.7,0.2-0.7,0.2v12c0,0,0.2-0.1,0.7-0.2v4.6
		c-0.4,0.1-0.7,0.2-0.7,0.2v12c0,0,0.2-0.1,0.7-0.2v3.9c-0.4,0.1-0.7,0.2-0.7,0.2v12c0,0,27.8-8.5,57.7-8.5c3.6,0,7.2-0.1,10.7-0.2
		V15.9z"/>
	<path opacity="0.2" d="M199.7,17.5c-20.3,2.4-34.5,7.1-34.5,7.1v12c0,0,0.2-0.1,0.7-0.2v4.5c-0.4,0.1-0.7,0.2-0.7,0.2v12
		c0,0,0.2-0.1,0.7-0.2v4.6c-0.4,0.1-0.7,0.2-0.7,0.2v12c0,0,0.2-0.1,0.7-0.2v4.5c-0.4,0.1-0.7,0.2-0.7,0.2v12c0,0,0.2-0.1,0.7-0.2
		v4.5c-0.4,0.1-0.7,0.2-0.7,0.2v12c0,0,0.2-0.1,0.7-0.2v4.6c-0.4,0.1-0.7,0.2-0.7,0.2v12c0,0,0.2-0.1,0.7-0.2v3.9
		c-0.4,0.1-0.7,0.2-0.7,0.2v12c0,0,14.8-4.5,34.5-7V17.5z"/>
	<rect x="288.6" y="0" fill="#F5C99D" width="59.8" height="136.4"/>
	<path opacity="0.5" d="M348.3,117.5c0,0-9.8-1.8-26.7-1.8s-33.1-0.6-33.1-0.6V36.6h59.8V117.5z"/>
	<rect x="288.6" y="0" opacity="0.2" width="29.9" height="136.4"/>
	<rect x="288.6" y="0" opacity="0.2" width="14.9" height="136.4"/>
	<path opacity="0.5" d="M202,127.8c6.6-0.8,13.7-1.3,21-1.3c29.9,0,57.8-4.1,57.8-4.1v-12c0,0-0.4,0.1-1,0.2v-3.9
		c0.6-0.1,1-0.1,1-0.1v-12c0,0-0.4,0.1-1,0.2V90c0.6-0.1,1-0.1,1-0.1v-12c0,0-0.4,0.1-1,0.2v-4.5c0.6-0.1,1-0.1,1-0.1v-12
		c0,0-0.4,0.1-1,0.2v-4.5c0.6-0.1,1-0.1,1-0.1V45c0,0-0.4,0.1-1,0.2v-4.6c0.6-0.1,1-0.1,1-0.1v-12c0,0-0.4,0.1-1,0.2v-8.1
		c0,24.2-10.3-3.1-10.3-3.1C248.3,52.2,202,127.8,202,127.8z"/>
	<polygon points="380.9,119.3 267.1,103.7 267.1,18.8 380.9,31 	"/>
	<path fill="#CEB097" d="M381.6,39.1c0,0-27.8-8.5-57.7-8.5c-29.9,0-57.8-4.1-57.8-4.1v-12c0,0,25.7,4.1,57.7,4.1s57.7,8.5,57.7,8.5
		V39.1z"/>
	<path fill="#CEB097" d="M381.6,55.6c0,0-27.8-8.5-57.7-8.5c-29.9,0-57.8-4.1-57.8-4.1V31c0,0,25.7,4.1,57.7,4.1s57.7,8.5,57.7,8.5
		V55.6z"/>
	<path fill="#CEB097" d="M381.6,72.2c0,0-27.8-8.5-57.7-8.5c-29.9,0-57.8-4.1-57.8-4.1v-12c0,0,25.7,4.1,57.7,4.1s57.7,8.5,57.7,8.5
		V72.2z"/>
	<path fill="#CEB097" d="M381.6,88.7c0,0-27.8-8.5-57.7-8.5c-29.9,0-57.8-4.1-57.8-4.1V64c0,0,25.7,4.1,57.7,4.1s57.7,8.5,57.7,8.5
		V88.7z"/>
	<path fill="#CEB097" d="M381.6,105.1c0,0-27.8-8.5-57.7-8.5c-29.9,0-57.8-4.1-57.8-4.1v-12c0,0,25.7,4.1,57.7,4.1
		s57.7,8.5,57.7,8.5V105.1z"/>
	<path fill="#CEB097" d="M381.6,121.7c0,0-27.8-8.5-57.7-8.5c-29.9,0-57.8-4.1-57.8-4.1v-12c0,0,25.7,4.1,57.7,4.1
		s57.7,8.5,57.7,8.5V121.7z"/>
	<path opacity="0.2" d="M334.5,19c-3.5-0.2-7-0.3-10.7-0.3c-32,0-57.7-4.1-57.7-4.1v12c0,0,0.4,0.1,1,0.1v4.5c-0.6-0.1-1-0.2-1-0.2
		v12c0,0,0.4,0.1,1,0.1v4.6c-0.6-0.1-1-0.2-1-0.2v12c0,0,0.4,0.1,1,0.1v4.5c-0.6-0.1-1-0.2-1-0.2v12c0,0,0.4,0.1,1,0.1v4.5
		c-0.6-0.1-1-0.2-1-0.2v12c0,0,0.4,0.1,1,0.1v4.6c-0.6-0.1-1-0.2-1-0.2v12c0,0,27.9,4.1,57.8,4.1c3.6,0,7.2,0.1,10.7,0.3V19z"/>
	<path opacity="0.2" d="M297.2,17.7c-18.5-1.2-31.1-3.2-31.1-3.2v12c0,0,0.4,0.1,1,0.1v4.5c-0.6-0.1-1-0.2-1-0.2v12
		c0,0,0.4,0.1,1,0.1v4.6c-0.6-0.1-1-0.2-1-0.2v12c0,0,0.4,0.1,1,0.1v4.5c-0.6-0.1-1-0.2-1-0.2v12c0,0,0.4,0.1,1,0.1v4.5
		c-0.6-0.1-1-0.2-1-0.2v12c0,0,0.4,0.1,1,0.1v4.6c-0.6-0.1-1-0.2-1-0.2v12c0,0,13.2,2,31.1,3.2V17.7z"/>
</g>
</svg>
